<svg xmlns="http://www.w3.org/2000/svg" xmlns:xlink="http://www.w3.org/1999/xlink" width="556" zoomAndPan="magnify" viewBox="0 0 416.88 540.000001" height="720" preserveAspectRatio="xMidYMid meet" version="1.0"><defs><g/><clipPath id="4bb9ec3d62"><path d="M 101.253906 46.113281 L 315.359375 46.113281 L 315.359375 426.410156 L 101.253906 426.410156 Z M 101.253906 46.113281 " clip-rule="nonzero"/></clipPath></defs><g clip-path="url(#4bb9ec3d62)"><path fill="#ff2600" d="M 101.488281 236.238281 C 101.488281 236.238281 172.800781 236.238281 172.800781 236.238281 C 172.800781 236.238281 101.488281 426.402344 101.488281 426.402344 C 101.488281 426.402344 315.425781 164.925781 315.425781 164.925781 C 315.425781 164.925781 220.339844 164.613281 220.339844 164.613281 C 220.339844 164.613281 267.882812 46.074219 267.882812 46.074219 C 267.882812 46.074219 149.03125 46.074219 149.03125 46.074219 C 149.03125 46.074219 101.488281 236.238281 101.488281 236.238281 Z M 101.488281 236.238281 " fill-opacity="1" fill-rule="nonzero"/></g><g fill="#ffffff" fill-opacity="1"><g transform="translate(38.0641, 487.646975)"><g><path d="M 27.21875 -31.8125 L 27.21875 -23.90625 L 18.78125 -23.90625 L 18.78125 0 L 8.8125 0 L 8.8125 -23.90625 L 0.453125 -23.90625 L 0.453125 -31.8125 Z M 27.21875 -31.8125 "/></g></g></g><g fill="#ffffff" fill-opacity="1"><g transform="translate(65.732832, 487.646975)"><g><path d="M 18.234375 0 L 12.265625 -11.40625 L 12.21875 -11.40625 L 12.21875 0 L 2.25 0 L 2.25 -31.8125 L 17.078125 -31.8125 C 19.648438 -31.8125 21.847656 -31.351562 23.671875 -30.4375 C 25.503906 -29.519531 26.875 -28.273438 27.78125 -26.703125 C 28.695312 -25.128906 29.15625 -23.359375 29.15625 -21.390625 C 29.15625 -19.253906 28.5625 -17.363281 27.375 -15.71875 C 26.195312 -14.070312 24.5 -12.890625 22.28125 -12.171875 L 29.203125 0 Z M 12.21875 -18.0625 L 16.171875 -18.0625 C 17.128906 -18.0625 17.847656 -18.273438 18.328125 -18.703125 C 18.804688 -19.140625 19.046875 -19.820312 19.046875 -20.75 C 19.046875 -21.59375 18.796875 -22.253906 18.296875 -22.734375 C 17.804688 -23.210938 17.097656 -23.453125 16.171875 -23.453125 L 12.21875 -23.453125 Z M 12.21875 -18.0625 "/></g></g></g><g fill="#ffffff" fill-opacity="1"><g transform="translate(95.827075, 487.646975)"><g><path d="M 22.640625 -4.8125 L 12.046875 -4.8125 L 10.46875 0 L 0 0 L 11.640625 -31.8125 L 23.140625 -31.8125 L 34.71875 0 L 24.21875 0 Z M 20.21875 -12.3125 L 17.34375 -21.15625 L 14.46875 -12.3125 Z M 20.21875 -12.3125 "/></g></g></g><g fill="#ffffff" fill-opacity="1"><g transform="translate(130.547745, 487.646975)"><g><path d="M 15.5 -31.8125 C 18.820312 -31.8125 21.734375 -31.132812 24.234375 -29.78125 C 26.734375 -28.4375 28.65625 -26.566406 30 -24.171875 C 31.351562 -21.773438 32.03125 -19.050781 32.03125 -16 C 32.03125 -12.96875 31.351562 -10.238281 30 -7.8125 C 28.65625 -5.382812 26.734375 -3.472656 24.234375 -2.078125 C 21.734375 -0.691406 18.820312 0 15.5 0 L 2.25 0 L 2.25 -31.8125 Z M 14.59375 -8.890625 C 16.84375 -8.890625 18.625 -9.503906 19.9375 -10.734375 C 21.257812 -11.960938 21.921875 -13.71875 21.921875 -16 C 21.921875 -18.269531 21.257812 -20.019531 19.9375 -21.25 C 18.625 -22.476562 16.84375 -23.09375 14.59375 -23.09375 L 12.21875 -23.09375 L 12.21875 -8.890625 Z M 14.59375 -8.890625 "/></g></g></g><g fill="#ffffff" fill-opacity="1"><g transform="translate(163.920909, 487.646975)"><g><path d="M 12.21875 -23.859375 L 12.21875 -19.953125 L 22.109375 -19.953125 L 22.109375 -12.4375 L 12.21875 -12.4375 L 12.21875 -7.953125 L 23.453125 -7.953125 L 23.453125 0 L 2.25 0 L 2.25 -31.8125 L 23.453125 -31.8125 L 23.453125 -23.859375 Z M 12.21875 -23.859375 "/></g></g></g><g fill="#ffffff" fill-opacity="1"><g transform="translate(188.894637, 487.646975)"><g/></g></g><g fill="#ffffff" fill-opacity="1"><g transform="translate(196.530494, 487.646975)"><g><path d="M 48.0625 -31.8125 L 40.796875 0 L 28.390625 0 L 24.703125 -18.0625 L 21.03125 0 L 8.625 0 L 1.34375 -31.8125 L 12.078125 -31.8125 L 14.953125 -11.765625 L 19.265625 -31.8125 L 30.140625 -31.8125 L 34.453125 -11.765625 L 37.328125 -31.8125 Z M 48.0625 -31.8125 "/></g></g></g><g fill="#ffffff" fill-opacity="1"><g transform="translate(245.93895, 487.646975)"><g><path d="M 12.21875 -31.8125 L 12.21875 0 L 2.25 0 L 2.25 -31.8125 Z M 12.21875 -31.8125 "/></g></g></g><g fill="#ffffff" fill-opacity="1"><g transform="translate(260.402148, 487.646975)"><g><path d="M 27.21875 -31.8125 L 27.21875 -23.90625 L 18.78125 -23.90625 L 18.78125 0 L 8.8125 0 L 8.8125 -23.90625 L 0.453125 -23.90625 L 0.453125 -31.8125 Z M 27.21875 -31.8125 "/></g></g></g><g fill="#ffffff" fill-opacity="1"><g transform="translate(288.070879, 487.646975)"><g><path d="M 31.671875 -31.8125 L 31.671875 0 L 21.703125 0 L 21.703125 -12.40625 L 12.21875 -12.40625 L 12.21875 0 L 2.25 0 L 2.25 -31.8125 L 12.21875 -31.8125 L 12.21875 -20.34375 L 21.703125 -20.34375 L 21.703125 -31.8125 Z M 31.671875 -31.8125 "/></g></g></g><g fill="#ffffff" fill-opacity="1"><g transform="translate(321.983045, 487.646975)"><g/></g></g><g fill="#ff2600" fill-opacity="1"><g transform="translate(329.625722, 487.646975)"><g><path d="M 22.640625 -4.8125 L 12.046875 -4.8125 L 10.46875 0 L 0 0 L 11.640625 -31.8125 L 23.140625 -31.8125 L 34.71875 0 L 24.21875 0 Z M 20.21875 -12.3125 L 17.34375 -21.15625 L 14.46875 -12.3125 Z M 20.21875 -12.3125 "/></g></g></g><g fill="#ff2600" fill-opacity="1"><g transform="translate(364.346393, 487.646975)"><g><path d="M 12.21875 -31.8125 L 12.21875 0 L 2.25 0 L 2.25 -31.8125 Z M 12.21875 -31.8125 "/></g></g></g></svg>